<svg width="1089" height="235" viewBox="0 0 1089 235" fill="none" xmlns="http://www.w3.org/2000/svg">
  <mask id="mask0_1_350" style="mask-type:luminance" maskUnits="userSpaceOnUse" x="0" y="0" width="1249" height="385">
    <path d="M1249 0H0V385H1249V0Z" fill="white" />
  </mask>
  <g mask="url(#mask0_1_350)">
    <g opacity="0.6">
      <path
        d="M41.5 83C64.4198 83 83 64.4198 83 41.5C83 18.5802 64.4198 0 41.5 0C18.5802 0 0 18.5802 0 41.5C0 64.4198 18.5802 83 41.5 83Z"
        fill="#F7C894" />
      <path
        d="M185.5 83C208.42 83 227 64.4198 227 41.5C227 18.5802 208.42 0 185.5 0C162.58 0 144 18.5802 144 41.5C144 64.4198 162.58 83 185.5 83Z"
        fill="#F7C894" />
      <path
        d="M329.5 83C352.42 83 371 64.4198 371 41.5C371 18.5802 352.42 0 329.5 0C306.58 0 288 18.5802 288 41.5C288 64.4198 306.58 83 329.5 83Z"
        fill="#F7C894" />
      <path
        d="M473.5 83C496.42 83 515 64.4198 515 41.5C515 18.5802 496.42 0 473.5 0C450.58 0 432 18.5802 432 41.5C432 64.4198 450.58 83 473.5 83Z"
        fill="#F7C894" />
      <path
        d="M617.5 83C640.42 83 659 64.4198 659 41.5C659 18.5802 640.42 0 617.5 0C594.58 0 576 18.5802 576 41.5C576 64.4198 594.58 83 617.5 83Z"
        fill="#F7C894" />
      <path
        d="M761.5 83C784.42 83 803 64.4198 803 41.5C803 18.5802 784.42 0 761.5 0C738.58 0 720 18.5802 720 41.5C720 64.4198 738.58 83 761.5 83Z"
        fill="#F7C894" />
      <path
        d="M905.5 83C928.42 83 947 64.4198 947 41.5C947 18.5802 928.42 0 905.5 0C882.58 0 864 18.5802 864 41.5C864 64.4198 882.58 83 905.5 83Z"
        fill="#F7C894" />
      <path
        d="M1049.5 83C1072.42 83 1091 64.4198 1091 41.5C1091 18.5802 1072.42 0 1049.5 0C1026.58 0 1008 18.5802 1008 41.5C1008 64.4198 1026.58 83 1049.5 83Z"
        fill="#F7C894" />
      <path
        d="M41.5 228C64.4198 228 83 209.42 83 186.5C83 163.58 64.4198 145 41.5 145C18.5802 145 0 163.58 0 186.5C0 209.42 18.5802 228 41.5 228Z"
        fill="#F7C894" />
      <path
        d="M185.5 228C208.42 228 227 209.42 227 186.5C227 163.58 208.42 145 185.5 145C162.58 145 144 163.58 144 186.5C144 209.42 162.58 228 185.5 228Z"
        fill="#F7C894" />
      <path
        d="M329.5 228C352.42 228 371 209.42 371 186.5C371 163.58 352.42 145 329.5 145C306.58 145 288 163.58 288 186.5C288 209.42 306.58 228 329.5 228Z"
        fill="#F7C894" />
      <path
        d="M473.5 228C496.42 228 515 209.42 515 186.5C515 163.58 496.42 145 473.5 145C450.58 145 432 163.58 432 186.5C432 209.42 450.58 228 473.5 228Z"
        fill="#F7C894" />
      <path
        d="M617.5 228C640.42 228 659 209.42 659 186.5C659 163.58 640.42 145 617.5 145C594.58 145 576 163.58 576 186.5C576 209.42 594.58 228 617.5 228Z"
        fill="#F7C894" />
      <path
        d="M761.5 228C784.42 228 803 209.42 803 186.5C803 163.58 784.42 145 761.5 145C738.58 145 720 163.58 720 186.5C720 209.42 738.58 228 761.5 228Z"
        fill="#F7C894" />
      <path
        d="M905.5 228C928.42 228 947 209.42 947 186.5C947 163.58 928.42 145 905.5 145C882.58 145 864 163.58 864 186.5C864 209.42 882.58 228 905.5 228Z"
        fill="#F7C894" />
      <path
        d="M1049.5 228C1072.42 228 1091 209.42 1091 186.5C1091 163.58 1072.42 145 1049.5 145C1026.58 145 1008 163.58 1008 186.5C1008 209.42 1026.58 228 1049.5 228Z"
        fill="#F7C894" />
    </g>
  </g>
</svg>