<svg width="526" height="194" viewBox="0 0 526 194" fill="none" xmlns="http://www.w3.org/2000/svg">
  <g opacity="0.6">
    <path
      d="M-2.5 42C20.4198 42 39 23.4198 39 0.5C39 -22.4198 20.4198 -41 -2.5 -41C-25.4198 -41 -44 -22.4198 -44 0.5C-44 23.4198 -25.4198 42 -2.5 42Z"
      fill="#97B7C4" />
    <path
      d="M159.5 42C182.972 42 202 23.4198 202 0.5C202 -22.4198 182.972 -41 159.5 -41C136.028 -41 117 -22.4198 117 0.5C117 23.4198 136.028 42 159.5 42Z"
      fill="#97B7C4" />
    <path
      d="M321.5 42C344.42 42 363 23.4198 363 0.5C363 -22.4198 344.42 -41 321.5 -41C298.58 -41 280 -22.4198 280 0.5C280 23.4198 298.58 42 321.5 42Z"
      fill="#97B7C4" />
    <path
      d="M483.5 42C506.972 42 526 23.4198 526 0.5C526 -22.4198 506.972 -41 483.5 -41C460.028 -41 441 -22.4198 441 0.5C441 23.4198 460.028 42 483.5 42Z"
      fill="#97B7C4" />
    <path
      d="M-2.5 194C20.4198 194 39 175.42 39 152.5C39 129.58 20.4198 111 -2.5 111C-25.4198 111 -44 129.58 -44 152.5C-44 175.42 -25.4198 194 -2.5 194Z"
      fill="#97B7C4" />
    <path
      d="M159.5 194C182.972 194 202 175.42 202 152.5C202 129.58 182.972 111 159.5 111C136.028 111 117 129.58 117 152.5C117 175.42 136.028 194 159.5 194Z"
      fill="#97B7C4" />
    <path
      d="M321.5 194C344.42 194 363 175.42 363 152.5C363 129.58 344.42 111 321.5 111C298.58 111 280 129.58 280 152.5C280 175.42 298.58 194 321.5 194Z"
      fill="#97B7C4" />
    <path
      d="M483.5 194C506.972 194 526 175.42 526 152.5C526 129.58 506.972 111 483.5 111C460.028 111 441 129.58 441 152.5C441 175.42 460.028 194 483.5 194Z"
      fill="#97B7C4" />
  </g>
</svg>