      <svg width="203" height="326" viewBox="0 0 203 326" fill="none" xmlns="http://www.w3.org/2000/svg">
        <g opacity="0.6">
          <path
            d="M130.941 35.75C130.941 55.4942 146.947 71.5 166.691 71.5C186.435 71.5 202.441 55.4942 202.441 35.75C202.441 16.0058 186.435 0 166.691 0C146.947 0 130.941 16.0058 130.941 35.75Z"
            fill="#F4690C" />
          <path
            d="M130.941 175.306C130.941 195.526 146.947 211.918 166.691 211.918C186.435 211.918 202.441 195.526 202.441 175.306C202.441 155.086 186.435 138.694 166.691 138.694C146.947 138.694 130.941 155.086 130.941 175.306Z"
            fill="#F4690C" />
          <path
            d="M130.941 314.86C130.941 334.604 146.947 350.61 166.691 350.61C186.435 350.61 202.441 334.604 202.441 314.86C202.441 295.116 186.435 279.11 166.691 279.11C146.947 279.11 130.941 295.116 130.941 314.86Z"
            fill="#F4690C" />
          <path
            d="M0 35.75C0 55.4942 16.0058 71.5 35.75 71.5C55.4942 71.5 71.5 55.4942 71.5 35.75C71.5 16.0058 55.4942 0 35.75 0C16.0058 0 0 16.0058 0 35.75Z"
            fill="#F4690C" />
          <path
            d="M0 175.306C0 195.526 16.0058 211.918 35.75 211.918C55.4942 211.918 71.5 195.526 71.5 175.306C71.5 155.086 55.4942 138.694 35.75 138.694C16.0058 138.694 0 155.086 0 175.306Z"
            fill="#F4690C" />
          <path
            d="M0 314.86C0 334.604 16.0058 350.61 35.75 350.61C55.4942 350.61 71.5 334.604 71.5 314.86C71.5 295.116 55.4942 279.11 35.75 279.11C16.0058 279.11 0 295.116 0 314.86Z"
            fill="#F4690C" />
        </g>
      </svg>
