<svg width="468" height="51" viewBox="0 0 468 51" fill="none" xmlns="http://www.w3.org/2000/svg">
  <path
    d="M439.887 49.0405H467.105V44.3615H444.671V25.5615H462.854V20.8825H444.671V5.89146H467.301V1.20846H439.887V49.0405ZM354.86 49.0405H382.08V44.3615H359.641V25.5615H376.971V20.8825H359.641V5.89146H382.271V1.20846H354.86V49.0405ZM326.729 49.0405H349.915V44.4265H331.515V1.20846H326.734L326.729 49.0405ZM298.629 49.0405H321.815V44.4265H303.415V1.20846H298.634L298.629 49.0405ZM278.629 7.41946C281.737 9.16068 284.319 11.7068 286.104 14.7905C287.89 17.9261 288.807 21.482 288.759 25.0905C288.803 28.7346 287.887 32.3262 286.104 35.5045C284.364 38.599 281.806 41.155 278.71 42.8925C275.572 44.6868 272.015 45.6183 268.4 45.5925C265.741 45.5979 263.108 45.0764 260.652 44.0581C258.196 43.0397 255.966 41.5446 254.091 39.6593C252.217 37.774 250.734 35.5358 249.73 33.0742C248.725 30.6125 248.218 27.9761 248.239 25.3175C248.192 21.6604 249.113 18.056 250.91 14.8705C252.685 11.7932 255.232 9.23198 258.299 7.4397C261.366 5.64743 264.848 4.68604 268.4 4.65045C271.995 4.64836 275.525 5.60377 278.628 7.41845M255.726 3.34046C251.915 5.53344 248.772 8.7202 246.631 12.5605C244.415 16.4534 243.265 20.8613 243.295 25.3405C243.242 28.6234 243.864 31.8822 245.123 34.9144C246.383 37.9466 248.252 40.6874 250.616 42.9665C252.957 45.3391 255.757 47.209 258.845 48.4615C261.934 49.714 265.246 50.3227 268.578 50.2505C271.89 50.3137 275.18 49.6969 278.244 48.4382C281.308 47.1795 284.081 45.3056 286.392 42.9325C288.761 40.618 290.632 37.843 291.888 34.7783C293.145 31.7136 293.761 28.4241 293.698 25.1125C293.771 21.7932 293.158 18.4946 291.899 15.4227C290.639 12.3509 288.759 9.57192 286.377 7.25946C283.995 4.88068 281.155 3.01118 278.028 1.76465C274.901 0.518115 271.554 -0.0793946 268.189 0.00845503C263.811 -0.0160244 259.507 1.13466 255.726 3.34046ZM233.631 2.65846C229.856 0.852352 225.715 -0.0546987 221.531 0.00845503C214.139 0.00845503 207.988 2.39845 203.077 7.17845C200.688 9.44999 198.799 12.195 197.53 15.2381C196.262 18.2812 195.643 21.5554 195.712 24.8515C195.561 31.0879 197.728 37.1589 201.792 41.8915C206.628 47.4641 213.228 50.2501 221.592 50.2495C225.71 50.3086 229.79 49.4595 233.543 47.7625C237.037 46.1606 240.097 43.7465 242.469 40.7215L238.698 37.8605C236.672 40.3568 234.106 42.3617 231.195 43.7248C228.283 45.0878 225.1 45.7735 221.885 45.7305C219.098 45.8194 216.322 45.347 213.721 44.3411C211.12 43.3353 208.749 41.8166 206.747 39.8755C204.788 37.9919 203.242 35.721 202.209 33.2073C201.176 30.6936 200.678 27.9923 200.747 25.2755C200.693 21.624 201.62 18.0249 203.43 14.8535C205.232 11.7509 207.846 9.19894 210.991 7.47246C214.223 5.64538 217.878 4.69787 221.591 4.72446C224.912 4.68797 228.198 5.40602 231.201 6.82445C234.155 8.25309 236.727 10.3659 238.701 12.9875L242.472 10.0925C240.189 6.91718 237.148 4.3628 233.627 2.66145"
    fill="white" />
  <path
    d="M142.04 49.0164H158.028V31.8674H172.648V49.0174H188.636V1.19042H172.648V18.0674H158.028V1.19042H142.04V49.0164ZM124.721 49.0164C126.935 48.3909 129.05 47.4593 131.006 46.2484C132.805 45.1263 134.428 43.7447 135.824 42.1484C137.173 40.5993 138.363 38.9177 139.374 37.1294L126.187 29.6814C125.285 31.337 124.08 32.8088 122.635 34.0204C121.067 35.2015 119.134 35.794 117.174 35.6944C115.923 35.7095 114.685 35.4408 113.553 34.9084C112.464 34.3884 111.498 33.6433 110.718 32.7224C109.892 31.7364 109.265 30.5993 108.872 29.3744C108.427 27.9953 108.208 26.5534 108.223 25.1044V24.9664C108.217 23.5959 108.436 22.2337 108.872 20.9344C109.273 19.72 109.886 18.5864 110.683 17.5864C111.444 16.6425 112.399 15.8735 113.483 15.3314C114.632 14.7716 115.896 14.49 117.174 14.5094C119.073 14.4184 120.945 14.9857 122.474 16.1154C123.881 17.265 125.032 18.6955 125.855 20.3154L139.042 12.5934C138.048 10.7841 136.844 9.09873 135.454 7.57242C134.057 6.03949 132.447 4.71587 130.673 3.64242C128.796 2.51644 126.772 1.65434 124.66 1.08042C122.288 0.444353 119.84 0.134173 117.384 0.158424C113.968 0.132477 110.58 0.770291 107.408 2.03642C104.394 3.23496 101.642 5.0105 99.308 7.26342C96.9933 9.5154 95.1567 12.2112 93.908 15.1894C92.593 18.3257 91.9302 21.6968 91.96 25.0974V25.2334C91.9145 28.7103 92.6007 32.1579 93.974 35.3524C95.2286 38.2799 97.0524 40.9289 99.3393 43.1456C101.626 45.3624 104.331 47.1027 107.296 48.2654C110.309 49.4542 113.52 50.0567 116.759 50.0404C119.447 50.077 122.127 49.7322 124.719 49.0164M48.711 49.0164H89.844V35.8994H64.426V30.7094H85.853V19.1604H64.426V14.3094H89.502V1.19042H48.713L48.711 49.0164ZM14.071 49.0164H30.061V14.7194H44.135V1.19042H0V14.7194H14.074L14.071 49.0164Z"
    fill="white" />
  <path
    d="M423.716 3.86354C418.805 0.852532 413.007 -0.376927 407.296 0.381612C401.586 1.14015 396.31 3.84049 392.355 8.02918C388.4 12.2179 386.007 17.6398 385.577 23.3845C385.148 29.1292 386.708 34.8469 389.996 39.5773C393.283 44.3077 398.099 47.7628 403.633 49.3624C409.167 50.962 415.083 50.6086 420.388 48.3617C425.692 46.1148 430.062 42.1111 432.763 37.023C435.465 31.9349 436.333 26.0723 435.223 20.4195L430.89 21.2675C431.805 25.9257 431.088 30.7567 428.862 34.9493C426.636 39.1419 423.035 42.4409 418.663 44.2921C414.292 46.1434 409.417 46.4343 404.857 45.1159C400.296 43.7976 396.328 40.9503 393.619 37.0521C390.91 33.154 389.625 28.4424 389.979 23.7086C390.333 18.9747 392.305 14.5068 395.564 11.0552C398.823 7.60363 403.171 5.37847 407.877 4.7534C412.582 4.12833 417.36 5.14141 421.407 7.62253L423.716 3.86354Z"
    fill="white" />
  <path d="M429.465 9.3237L410.451 22.6265L413.019 26.2972L432.033 12.9945L429.465 9.3237Z" fill="white" />
</svg>