<svg width="399" height="1188" viewBox="0 0 399 1188" fill="none" xmlns="http://www.w3.org/2000/svg">
  <g opacity="0.75">
    <path
      d="M317 87C317 135.049 355.951 174 404 174C452.049 174 491 135.049 491 87C491 38.9512 452.049 0 404 0C355.951 0 317 38.9512 317 87Z"
      fill="#97B7C4" />
    <path
      d="M317 424C317 472.049 355.951 511 404 511C452.049 511 491 472.049 491 424C491 375.951 452.049 337 404 337C355.951 337 317 375.951 317 424Z"
      fill="#97B7C4" />
    <path
      d="M317 763.5C317 811.825 355.951 851 404 851C452.049 851 491 811.825 491 763.5C491 715.175 452.049 676 404 676C355.951 676 317 715.175 317 763.5Z"
      fill="#97B7C4" />
    <path
      d="M317 1101C317 1149.05 355.951 1188 404 1188C452.049 1188 491 1149.05 491 1101C491 1052.95 452.049 1014 404 1014C355.951 1014 317 1052.95 317 1101Z"
      fill="#97B7C4" />
    <path
      d="M0 87C0 135.049 39.3989 174 88 174C136.601 174 176 135.049 176 87C176 38.9512 136.601 0 88 0C39.3989 0 0 38.9512 0 87Z"
      fill="#97B7C4" />
    <path
      d="M0 424C0 472.049 39.3989 511 88 511C136.601 511 176 472.049 176 424C176 375.951 136.601 337 88 337C39.3989 337 0 375.951 0 424Z"
      fill="#97B7C4" />
    <path
      d="M0 763.5C0 811.825 39.3989 851 88 851C136.601 851 176 811.825 176 763.5C176 715.175 136.601 676 88 676C39.3989 676 0 715.175 0 763.5Z"
      fill="#97B7C4" />
    <path
      d="M0 1101C0 1149.05 39.3989 1188 88 1188C136.601 1188 176 1149.05 176 1101C176 1052.95 136.601 1014 88 1014C39.3989 1014 0 1052.95 0 1101Z"
      fill="#97B7C4" />
  </g>
</svg>